<svg width="21" height="16" viewBox="0 0 21 16" fill="none" xmlns="http://www.w3.org/2000/svg">
<g id="SVG" clip-path="url(#clip0_122_4763)">
<path id="Vector" d="M7.6709 9.5C9.20709 9.5 10.4943 10.5658 10.8335 11.9983L20.1709 12C20.5851 12 20.9209 12.3358 20.9209 12.75C20.9209 13.1297 20.6387 13.4435 20.2727 13.4932L20.1709 13.5L10.8338 13.5007C10.4949 14.9337 9.20745 16 7.6709 16C6.13435 16 4.84684 14.9337 4.50802 13.5007L1.6709 13.5C1.25668 13.5 0.920898 13.1642 0.920898 12.75C0.920898 12.3703 1.20305 12.0565 1.56913 12.0068L1.6709 12L4.50802 11.9993C4.84684 10.5663 6.13435 9.5 7.6709 9.5ZM7.6709 11C6.90676 11 6.25701 11.4898 6.01843 12.1725L5.99786 12.2352L5.95937 12.3834C5.93416 12.5016 5.9209 12.6242 5.9209 12.75C5.9209 12.9048 5.94101 13.055 5.97875 13.1979L6.01856 13.3279L6.04425 13.3966C6.30145 14.0431 6.93281 14.5 7.6709 14.5C8.43466 14.5 9.08414 14.0107 9.32302 13.3285L9.36308 13.1978L9.346 13.2581C9.39471 13.0973 9.4209 12.9267 9.4209 12.75C9.4209 12.6452 9.41168 12.5425 9.39402 12.4428L9.36399 12.3057L9.34398 12.2353L9.29715 12.1024C9.03971 11.4565 8.40861 11 7.6709 11ZM14.1709 0C15.7075 0 16.995 1.06632 17.3338 2.49934L20.1709 2.5C20.5851 2.5 20.9209 2.83579 20.9209 3.25C20.9209 3.6297 20.6387 3.94349 20.2727 3.99315L20.1709 4L17.3338 4.00066C16.995 5.43368 15.7075 6.5 14.1709 6.5C12.6343 6.5 11.3468 5.43368 11.008 4.00066L1.6709 4C1.25668 4 0.920898 3.66421 0.920898 3.25C0.920898 2.8703 1.20305 2.55651 1.56913 2.50685L1.6709 2.5L11.0083 2.49833C11.3474 1.06582 12.6347 0 14.1709 0ZM14.1709 1.5C13.4068 1.5 12.757 1.98976 12.5184 2.6725L12.4979 2.73515L12.4594 2.88337C12.4342 3.0016 12.4209 3.12425 12.4209 3.25C12.4209 3.40483 12.441 3.55497 12.4788 3.69794L12.5186 3.82787L12.5443 3.89664C12.8014 4.54307 13.4328 5 14.1709 5C14.9347 5 15.5841 4.51073 15.823 3.82852L15.8631 3.69781L15.846 3.75808C15.8947 3.59729 15.9209 3.4267 15.9209 3.25C15.9209 3.14518 15.9117 3.04251 15.894 2.94275L15.864 2.80565L15.844 2.73529L15.7972 2.60236C15.5397 1.95647 14.9086 1.5 14.1709 1.5Z" fill="#777777"/>
</g>
<defs>
<clipPath id="clip0_122_4763">
<rect width="20" height="16" fill="white" transform="translate(0.920898)"/>
</clipPath>
</defs>
</svg>
