<svg width="25" height="24" viewBox="0 0 25 24" fill="none" xmlns="http://www.w3.org/2000/svg">
<g id="Link &#226;&#134;&#146; SVG" clip-path="url(#clip0_122_4459)">
<path id="Vector" d="M24.9033 12C24.9033 18.627 19.5303 24 12.9033 24C6.27632 24 0.90332 18.627 0.90332 12C0.90332 5.373 6.27632 0 12.9033 0C19.5303 0 24.9033 5.373 24.9033 12ZM13.3333 8.859C12.1663 9.344 9.83332 10.349 6.33532 11.873C5.76732 12.099 5.46932 12.32 5.44232 12.536C5.39632 12.902 5.85432 13.046 6.47632 13.241C6.56132 13.268 6.64932 13.295 6.73932 13.325C7.35232 13.524 8.17632 13.757 8.60432 13.766C8.99332 13.774 9.42732 13.614 9.90632 13.286C13.1743 11.079 14.8613 9.964 14.9673 9.94C15.0423 9.923 15.1463 9.901 15.2163 9.964C15.2863 10.026 15.2793 10.144 15.2723 10.176C15.2263 10.369 13.4323 12.038 12.5023 12.902C12.2123 13.171 12.0073 13.362 11.9653 13.406C11.8713 13.503 11.7753 13.596 11.6833 13.685C11.1133 14.233 10.6873 14.645 11.7073 15.317C12.1973 15.64 12.5893 15.907 12.9803 16.173C13.4073 16.464 13.8333 16.754 14.3853 17.116C14.5253 17.208 14.6593 17.303 14.7903 17.396C15.2873 17.751 15.7343 18.069 16.2863 18.019C16.6063 17.989 16.9383 17.688 17.1063 16.789C17.5033 14.663 18.2853 10.059 18.4663 8.161C18.4773 8.00341 18.4706 7.84509 18.4463 7.689C18.4318 7.56293 18.3704 7.44693 18.2743 7.364C18.1313 7.247 17.9093 7.222 17.8093 7.224C17.3583 7.232 16.6663 7.473 13.3333 8.859Z" fill="white"/>
</g>
<defs>
<clipPath id="clip0_122_4459">
<rect width="24" height="24" fill="white" transform="translate(0.90332)"/>
</clipPath>
</defs>
</svg>
