<svg width="24" height="25" viewBox="0 0 24 25" fill="none" xmlns="http://www.w3.org/2000/svg">
<path d="M19.647 15.7093H4.353M19.647 15.7093V8.17334C19.647 6.28734 19.647 5.34534 19.061 4.75934C18.476 4.17334 17.533 4.17334 15.647 4.17334H8.353C6.467 4.17334 5.525 4.17334 4.939 4.75934C4.353 5.34534 4.353 6.28734 4.353 8.17334V15.7093M19.647 15.7093L21.391 17.5093L21.479 17.6013C21.7998 17.9537 21.9842 18.4091 21.999 18.8853L22 19.0123C22 19.1623 22 19.2363 21.996 19.2993C21.9653 19.7852 21.7585 20.2433 21.4142 20.5875C21.0699 20.9318 20.6119 21.1387 20.126 21.1693C20.0304 21.1734 19.9347 21.1747 19.839 21.1733H4.161C4.011 21.1733 3.937 21.1733 3.874 21.1693C3.3881 21.1387 2.93008 20.9318 2.58581 20.5875C2.24155 20.2433 2.03468 19.7852 2.004 19.2993C2 19.2363 2 19.1613 2 19.0133L2.001 18.8863C2.01584 18.4101 2.20024 17.9547 2.521 17.6023L2.609 17.5103L4.353 15.7093M9.5 18.6733H14.5" stroke="#5A5F64" stroke-width="1.5" stroke-linecap="round"/>
<path d="M12.75 6.92334C12.75 7.12225 12.671 7.31302 12.5303 7.45367C12.3897 7.59432 12.1989 7.67334 12 7.67334C11.8011 7.67334 11.6103 7.59432 11.4697 7.45367C11.329 7.31302 11.25 7.12225 11.25 6.92334C11.25 6.72443 11.329 6.53366 11.4697 6.39301C11.6103 6.25236 11.8011 6.17334 12 6.17334C12.1989 6.17334 12.3897 6.25236 12.5303 6.39301C12.671 6.53366 12.75 6.72443 12.75 6.92334Z" fill="#FED700"/>
<path d="M9.2959 18.6714H14.6633" stroke="#FED700" stroke-width="1.5" stroke-linecap="round"/>
</svg>
