<svg width="22" height="20" viewBox="0 0 22 20" fill="none" xmlns="http://www.w3.org/2000/svg">
<g id="Group">
<path id="Vector" d="M11 14.1733C12.6569 14.1733 14 12.8302 14 11.1733C14 9.51649 12.6569 8.17334 11 8.17334C9.34315 8.17334 8 9.51649 8 11.1733C8 12.8302 9.34315 14.1733 11 14.1733Z" stroke="#5A5F64" stroke-width="1.5"/>
<path id="Vector_2" d="M8.778 19.1734H13.222C16.343 19.1734 17.904 19.1734 19.025 18.4384C19.5087 18.1214 19.9253 17.7123 20.251 17.2344C21 16.1344 21 14.6014 21 11.5374C21 8.47239 21 6.94039 20.251 5.84039C19.9253 5.3625 19.5087 4.95339 19.025 4.63639C18.305 4.16339 17.403 3.99439 16.022 3.93439C15.363 3.93439 14.796 3.44439 14.667 2.80939C14.5684 2.34426 14.3123 1.92742 13.9418 1.62934C13.5714 1.33125 13.1095 1.1702 12.634 1.17339H9.366C8.378 1.17339 7.527 1.85839 7.333 2.80939C7.204 3.44439 6.637 3.93439 5.978 3.93439C4.598 3.99439 3.696 4.16439 2.975 4.63639C2.49162 4.95345 2.07537 5.36256 1.75 5.84039C1 6.94039 1 8.47239 1 11.5374C1 14.6014 1 16.1334 1.749 17.2344C2.073 17.7104 2.489 18.1194 2.975 18.4384C4.096 19.1734 5.657 19.1734 8.778 19.1734Z" stroke="#5A5F64" stroke-width="1.5"/>
<path id="Vector_3" d="M18 8.17334H17" stroke="#FED700" stroke-width="1.5" stroke-linecap="round"/>
</g>
</svg>
