<svg width="24" height="25" viewBox="0 0 24 25" fill="none" xmlns="http://www.w3.org/2000/svg">
<g id="image">
<path id="Vector" d="M10.1988 8.52441C10.1988 5.34877 12.7732 2.77441 15.9488 2.77441C16.8947 2.77441 17.7893 3.00339 18.5782 3.4096C18.7911 3.51926 18.9389 3.72401 18.9758 3.96066C19.0128 4.1973 18.9345 4.43736 18.7651 4.60672L15.9994 7.37249L17.06 8.43315L19.8386 5.6546C20.0068 5.48638 20.2449 5.40794 20.4801 5.44323C20.7154 5.47851 20.92 5.62334 21.0315 5.83351C21.4577 6.63717 21.6988 7.55374 21.6988 8.52441C21.6988 11.7 19.1245 14.2744 15.9488 14.2744C15.4883 14.2744 15.0396 14.2201 14.6091 14.1173L7.24425 21.7362C6.12245 22.8966 4.29085 22.9825 3.06538 21.9321C1.73166 20.7889 1.63644 18.7585 2.85732 17.4955L10.3326 9.76243C10.2449 9.36314 10.1988 8.9488 10.1988 8.52441ZM15.9488 4.27441C13.6016 4.27441 11.6988 6.1772 11.6988 8.52441C11.6988 8.95637 11.763 9.37197 11.8819 9.76292C11.9612 10.0235 11.8929 10.3066 11.7036 10.5024L3.93581 18.538C3.31521 19.18 3.36361 20.2121 4.04156 20.7932C4.6645 21.3272 5.59553 21.2835 6.16577 20.6936L13.8422 12.7525C14.0422 12.5456 14.343 12.4714 14.6164 12.5615C15.0345 12.6994 15.4822 12.7744 15.9488 12.7744C18.2961 12.7744 20.1988 10.8716 20.1988 8.52441C20.1988 8.18226 20.1586 7.85003 20.0825 7.53197L17.5903 10.0241C17.2975 10.317 16.8226 10.317 16.5297 10.0241L14.4084 7.90282C14.1155 7.60993 14.1155 7.13505 14.4084 6.84216L16.8751 4.37546C16.5772 4.30932 16.2673 4.27441 15.9488 4.27441Z" fill="#5A5F64"/>
<path id="Vector_2" fill-rule="evenodd" clip-rule="evenodd" d="M15.0105 18.1957C15.1698 17.7254 15.4322 17.2937 15.7785 16.9278C15.837 16.866 15.9289 16.8439 16.0111 16.872L16.8386 17.1544C17.063 17.2309 17.3098 17.1194 17.39 16.9052C17.3979 16.8842 17.404 16.8625 17.4082 16.8406L17.5658 16.0146C17.5815 15.9325 17.6476 15.8675 17.7331 15.8501C17.9834 15.7993 18.24 15.7734 18.5 15.7734C18.7598 15.7734 19.0163 15.7992 19.2664 15.85C19.3519 15.8674 19.418 15.9323 19.4337 16.0144L19.5918 16.8405C19.6345 17.0643 19.8592 17.2126 20.0936 17.1718C20.1166 17.1677 20.1393 17.1619 20.1613 17.1544L20.9888 16.872C21.0711 16.8439 21.1629 16.866 21.2215 16.9278C21.5678 17.2937 21.8302 17.7254 21.9895 18.1957C22.0164 18.275 21.9905 18.362 21.9239 18.4159L21.2531 18.9595C21.0715 19.1067 21.0493 19.3666 21.2035 19.5399C21.2187 19.5569 21.2353 19.5728 21.2531 19.5873L21.9239 20.1308C21.9905 20.1848 22.0164 20.2718 21.9895 20.3511C21.8302 20.8214 21.5678 21.2531 21.2215 21.6189C21.1629 21.6808 21.0711 21.7029 20.9888 21.6748L20.1613 21.3924C19.937 21.3158 19.6901 21.4274 19.61 21.6415C19.6021 21.6626 19.596 21.6842 19.5918 21.7063L19.4337 22.5324C19.418 22.6145 19.3519 22.6794 19.2664 22.6968C19.0163 22.7475 18.7598 22.7734 18.5 22.7734C18.24 22.7734 17.9834 22.7475 17.7331 22.6967C17.6476 22.6793 17.5815 22.6143 17.5658 22.5322L17.4082 21.7062C17.3654 21.4825 17.1408 21.3342 16.9064 21.375C16.8834 21.379 16.8607 21.3848 16.8387 21.3923L16.0111 21.6748C15.9289 21.7029 15.837 21.6808 15.7785 21.6189C15.4322 21.2531 15.1698 20.8214 15.0105 20.3511C14.9836 20.2718 15.0095 20.1848 15.0761 20.1308L15.7468 19.5873C15.9284 19.4401 15.9506 19.1802 15.7964 19.0069C15.7813 18.9898 15.7647 18.974 15.7468 18.9595L15.0761 18.4159C15.0095 18.362 14.9836 18.275 15.0105 18.1957ZM18.4999 20.5234C19.1903 20.5234 19.7499 19.9638 19.7499 19.2734C19.7499 18.583 19.1903 18.0234 18.4999 18.0234C17.8096 18.0234 17.2499 18.583 17.2499 19.2734C17.2499 19.9638 17.8096 20.5234 18.4999 20.5234Z" fill="#FED700"/>
</g>
</svg>
