<svg width="24" height="25" viewBox="0 0 24 25" fill="none" xmlns="http://www.w3.org/2000/svg">
<path d="M7.29617 18.2876H5.12702C4.52081 18.2876 3.93943 18.0468 3.51078 17.6181C3.08212 17.1895 2.84131 16.6081 2.84131 16.0019L2.84131 11.4305C2.84131 10.8242 3.08212 10.2429 3.51078 9.81421C3.93943 9.38556 4.52081 9.14474 5.12702 9.14474L18.8573 9.14474C19.4635 9.14474 20.0449 9.38556 20.4736 9.81421C20.9022 10.2429 21.143 10.8242 21.143 11.4305V16.0019C21.143 16.6081 20.9022 17.1895 20.4736 17.6181C20.0449 18.0468 19.4635 18.2876 18.8573 18.2876H16.5716" stroke="#5A5F64" stroke-width="1.5" stroke-linecap="round" stroke-linejoin="round"/>
<path d="M7.42871 14.858V20.5735C7.42871 20.8766 7.54912 21.1672 7.76345 21.3816C7.97777 21.5959 8.26846 21.7163 8.57157 21.7163H15.4287C15.7318 21.7163 16.0225 21.5959 16.2368 21.3816C16.4512 21.1672 16.5716 20.8766 16.5716 20.5735V14.858H7.42871Z" stroke="#FED700" stroke-width="1.5" stroke-linecap="round" stroke-linejoin="round"/>
<path d="M19.4288 12.0022C19.4288 11.371 18.9171 10.8593 18.2859 10.8593C17.6547 10.8593 17.1431 11.371 17.1431 12.0022C17.1431 12.6333 17.6547 13.145 18.2859 13.145C18.9171 13.145 19.4288 12.6333 19.4288 12.0022Z" fill="#5A5F64"/>
<path d="M7.42871 7.26579V5.22803C7.42871 4.67574 7.87643 4.22803 8.42871 4.22803H15.432C15.9843 4.22803 16.432 4.67574 16.432 5.22803V7.26579" stroke="#5A5F64" stroke-width="1.5" stroke-linecap="round"/>
</svg>
