<svg width="20" height="23" viewBox="0 0 20 23" fill="none" xmlns="http://www.w3.org/2000/svg">
<g id="Group">
<path id="Vector" d="M16 4.58324L16.01 4.57224M19 3.57324V19.5732C19 20.1037 18.7893 20.6124 18.4142 20.9875C18.0391 21.3625 17.5304 21.5732 17 21.5732H3C2.46957 21.5732 1.96086 21.3625 1.58579 20.9875C1.21071 20.6124 1 20.1037 1 19.5732V3.57324C1 3.04281 1.21071 2.5341 1.58579 2.15903C1.96086 1.78396 2.46957 1.57324 3 1.57324H17C17.5304 1.57324 18.0391 1.78396 18.4142 2.15903C18.7893 2.5341 19 3.04281 19 3.57324Z" stroke="#5A5F64" stroke-width="1.5" stroke-linecap="round" stroke-linejoin="round"/>
<path id="Vector_2" d="M10 18.5732C11.5913 18.5732 13.1174 17.9411 14.2426 16.8159C15.3679 15.6907 16 14.1645 16 12.5732C16 10.9819 15.3679 9.45582 14.2426 8.3306C13.1174 7.20538 11.5913 6.57324 10 6.57324C8.4087 6.57324 6.88258 7.20538 5.75736 8.3306C4.63214 9.45582 4 10.9819 4 12.5732C4 14.1645 4.63214 15.6907 5.75736 16.8159C6.88258 17.9411 8.4087 18.5732 10 18.5732Z" stroke="#5A5F64" stroke-width="1.5" stroke-linecap="round" stroke-linejoin="round"/>
<path id="Vector_3" d="M10 15.5732C9.20435 15.5732 8.44129 15.2572 7.87868 14.6946C7.31607 14.132 7 13.3689 7 12.5732" stroke="#FED700" stroke-width="1.5" stroke-linecap="round" stroke-linejoin="round"/>
</g>
</svg>
