<svg width="24" height="25" viewBox="0 0 24 25" fill="none" xmlns="http://www.w3.org/2000/svg">
<path d="M3 8.97314C3 6.14514 3 4.73014 3.879 3.85214C4.757 2.97314 6.172 2.97314 9 2.97314H15C17.828 2.97314 19.243 2.97314 20.121 3.85214C21 4.73014 21 6.14514 21 8.97314V16.9731C21 19.8011 21 21.2161 20.121 22.0941C19.243 22.9731 17.828 22.9731 15 22.9731H9C6.172 22.9731 4.757 22.9731 3.879 22.0941C3 21.2161 3 19.8011 3 16.9731V8.97314Z" stroke="#5A5F64" stroke-width="1.5"/>
<path d="M2 12.9731H4M2 16.9731H4M2 8.97314H4M11.5 7.47314H16.5M11.5 10.9731H16.5" stroke="#FED700" stroke-width="1.5" stroke-linecap="round"/>
<path d="M7.92826 2.83252V23.1138" stroke="#5A5F64" stroke-width="1.5" stroke-linecap="round"/>
</svg>
