<svg width="25" height="24" viewBox="0 0 25 24" fill="none" xmlns="http://www.w3.org/2000/svg">
<g id="Link &#226;&#134;&#146; SVG" clip-path="url(#clip0_122_4455)">
<path id="Vector" d="M12.9001 7.9983C10.6967 7.9983 8.89847 9.79651 8.89847 12C8.89847 14.2035 10.6967 16.0017 12.9001 16.0017C15.1035 16.0017 16.9017 14.2035 16.9017 12C16.9017 9.79651 15.1035 7.9983 12.9001 7.9983ZM24.902 12C24.902 10.3429 24.917 8.70077 24.8239 7.04665C24.7308 5.12536 24.2926 3.4202 22.8876 2.01525C21.4797 0.607302 19.7776 0.172008 17.8563 0.0789456C16.1992 -0.0141173 14.5572 0.000892943 12.9031 0.000892943C11.246 0.000892943 9.60393 -0.0141173 7.94984 0.0789456C6.02858 0.172008 4.32346 0.610305 2.91854 2.01525C1.51061 3.42321 1.07533 5.12536 0.982265 7.04665C0.889203 8.70377 0.904213 10.3459 0.904213 12C0.904213 13.6541 0.889203 15.2992 0.982265 16.9533C1.07533 18.8746 1.51361 20.5798 2.91854 21.9847C4.32646 23.3927 6.02858 23.828 7.94984 23.9211C9.60693 24.0141 11.249 23.9991 12.9031 23.9991C14.5602 23.9991 16.2022 24.0141 17.8563 23.9211C19.7776 23.828 21.4827 23.3897 22.8876 21.9847C24.2956 20.5768 24.7308 18.8746 24.8239 16.9533C24.92 15.2992 24.902 13.6571 24.902 12ZM12.9001 18.1572C9.49286 18.1572 6.74305 15.4073 6.74305 12C6.74305 8.5927 9.49286 5.84284 12.9001 5.84284C16.3073 5.84284 19.0571 8.5927 19.0571 12C19.0571 15.4073 16.3073 18.1572 12.9001 18.1572ZM19.3093 7.02864C18.5138 7.02864 17.8713 6.38621 17.8713 5.59067C17.8713 4.79513 18.5138 4.1527 19.3093 4.1527C20.1048 4.1527 20.7472 4.79513 20.7472 5.59067C20.7475 5.77957 20.7104 5.96667 20.6383 6.14124C20.5661 6.31581 20.4602 6.47442 20.3266 6.608C20.193 6.74157 20.0344 6.84748 19.8598 6.91967C19.6853 6.99185 19.4982 7.02888 19.3093 7.02864Z" fill="white"/>
</g>
<defs>
<clipPath id="clip0_122_4455">
<rect width="24" height="24" fill="white" transform="translate(0.90332)"/>
</clipPath>
</defs>
</svg>
