<svg width="20" height="20" viewBox="0 0 20 20" fill="none" xmlns="http://www.w3.org/2000/svg">
<g id="Group">
<path id="Vector" d="M5 11.3735H6M14 11.3735H15" stroke="#FED700" stroke-width="1.5" stroke-linecap="round" stroke-linejoin="round"/>
<path id="Vector_2" d="M1 15.3735V8.78354C1.00021 8.51294 1.05532 8.24521 1.162 7.99654L3.481 2.58653C3.63504 2.22666 3.8913 1.9199 4.21802 1.70428C4.54473 1.48866 4.92755 1.37366 5.319 1.37354H14.681C15.0723 1.37358 15.4551 1.48843 15.7818 1.70387C16.1085 1.9193 16.3648 2.22585 16.519 2.58554L18.839 7.99553C18.9456 8.2449 19.0004 8.51334 19 8.78454V15.3735M1 15.3735V17.7735C1 17.9327 1.06321 18.0853 1.17574 18.1978C1.28826 18.3103 1.44087 18.3735 1.6 18.3735H4.4C4.55913 18.3735 4.71174 18.3103 4.82426 18.1978C4.93679 18.0853 5 17.9327 5 17.7735V15.3735M1 15.3735H5M19 15.3735V17.7735C19 17.9327 18.9368 18.0853 18.8243 18.1978C18.7117 18.3103 18.5591 18.3735 18.4 18.3735H15.6C15.5212 18.3735 15.4432 18.358 15.3704 18.3279C15.2976 18.2977 15.2315 18.2535 15.1757 18.1978C15.12 18.1421 15.0758 18.0759 15.0457 18.0031C15.0155 17.9303 15 17.8523 15 17.7735V15.3735M19 15.3735H15M5 15.3735H15" stroke="#5A5F64" stroke-width="1.5"/>
<path id="Vector 23" d="M5.99463 7.47363L14.0056 7.47363" stroke="#5A5F64" stroke-width="1.5" stroke-linecap="round"/>
</g>
</svg>
