<svg width="22" height="17" viewBox="0 0 22 17" fill="none" xmlns="http://www.w3.org/2000/svg">
<g id="Group">
<path id="Vector" d="M6.50008 5.77344V8.77344M5.00008 7.27344H8.00008M9.16508 1.55344L9.66708 1.90744C10.0569 2.18321 10.5226 2.3313 11.0001 2.3313C11.4776 2.3313 11.9433 2.18321 12.3331 1.90744L12.8351 1.55244C13.5514 1.04547 14.4075 0.773293 15.2851 0.773438H15.8971C16.3021 0.773438 16.7101 0.798437 17.0911 0.933437C19.4741 1.77944 21.1121 4.86844 20.9941 11.8764C20.9701 13.2884 20.6401 14.8484 19.3661 15.4574C18.9315 15.6664 18.4553 15.7744 17.9731 15.7734C17.4311 15.7823 16.8986 15.6302 16.4431 15.3364C15.5281 14.7374 14.8591 13.7364 13.8891 13.2344C13.3051 12.9316 12.6569 12.7735 11.9991 12.7734H10.0001C9.34208 12.7734 8.69408 12.9314 8.11008 13.2334C7.14008 13.7374 6.47008 14.7374 5.55708 15.3364C5.10154 15.6302 4.56908 15.7823 4.02708 15.7734C3.54487 15.7744 3.06867 15.6664 2.63408 15.4574C1.36008 14.8484 1.03008 13.2874 1.00608 11.8764C0.887081 4.86844 2.52608 1.77944 4.90908 0.933437C5.29008 0.798437 5.70008 0.773438 6.10308 0.773438H6.71508C7.59308 0.773438 8.44908 1.04544 9.16508 1.55344Z" stroke="#5A5F64" stroke-width="1.5" stroke-linecap="round"/>
<path id="Vector_2" d="M18 7.02344C18 7.22235 17.921 7.41312 17.7803 7.55377C17.6397 7.69442 17.4489 7.77344 17.25 7.77344C17.0511 7.77344 16.8603 7.69442 16.7197 7.55377C16.579 7.41312 16.5 7.22235 16.5 7.02344C16.5 6.82453 16.579 6.63376 16.7197 6.49311C16.8603 6.35246 17.0511 6.27344 17.25 6.27344C17.4489 6.27344 17.6397 6.35246 17.7803 6.49311C17.921 6.63376 18 6.82453 18 7.02344ZM15 7.02344C15 7.22235 14.921 7.41312 14.7803 7.55377C14.6397 7.69442 14.4489 7.77344 14.25 7.77344C14.0511 7.77344 13.8603 7.69442 13.7197 7.55377C13.579 7.41312 13.5 7.22235 13.5 7.02344C13.5 6.82453 13.579 6.63376 13.7197 6.49311C13.8603 6.35246 14.0511 6.27344 14.25 6.27344C14.4489 6.27344 14.6397 6.35246 14.7803 6.49311C14.921 6.63376 15 6.82453 15 7.02344ZM15.75 4.77344C15.9489 4.77344 16.1397 4.85246 16.2803 4.99311C16.421 5.13376 16.5 5.32453 16.5 5.52344C16.5 5.72235 16.421 5.91311 16.2803 6.05377C16.1397 6.19442 15.9489 6.27344 15.75 6.27344C15.5511 6.27344 15.3603 6.19442 15.2197 6.05377C15.079 5.91311 15 5.72235 15 5.52344C15 5.32453 15.079 5.13376 15.2197 4.99311C15.3603 4.85246 15.5511 4.77344 15.75 4.77344ZM15.75 7.77344C15.8485 7.77344 15.946 7.79284 16.037 7.83053C16.128 7.86822 16.2107 7.92346 16.2803 7.99311C16.35 8.06275 16.4052 8.14543 16.4429 8.23642C16.4806 8.32742 16.5 8.42495 16.5 8.52344C16.5 8.62193 16.4806 8.71946 16.4429 8.81045C16.4052 8.90144 16.35 8.98412 16.2803 9.05377C16.2107 9.12341 16.128 9.17866 16.037 9.21635C15.946 9.25404 15.8485 9.27344 15.75 9.27344C15.5511 9.27344 15.3603 9.19442 15.2197 9.05377C15.079 8.91312 15 8.72235 15 8.52344C15 8.32453 15.079 8.13376 15.2197 7.99311C15.3603 7.85246 15.5511 7.77344 15.75 7.77344Z" fill="#FED700"/>
</g>
</svg>
