<svg width="25" height="24" viewBox="0 0 25 24" fill="none" xmlns="http://www.w3.org/2000/svg">
<g id="Link &#226;&#134;&#146; SVG" clip-path="url(#clip0_122_4461)">
<path id="Vector" d="M23.1084 5.54986C19.5183 -0.000181198 12.1885 -1.6502 6.50421 1.79983C0.96946 5.24986 -0.825598 12.7499 2.76451 18.3L3.06369 18.75L1.86699 23.25L6.35462 22.05L6.80338 22.35C8.74802 23.4 10.8423 24 12.9365 24C15.1803 24 17.4241 23.4 19.3687 22.2C24.9035 18.6 26.5489 11.2499 23.1084 5.54986ZM19.9671 17.0999C19.3687 18 18.6208 18.6 17.5737 18.75C16.9753 18.75 16.2274 19.05 13.2356 17.85C10.6927 16.6499 8.59843 14.6999 7.10256 12.4499C6.20503 11.3999 5.75627 10.0499 5.60668 8.69988C5.60668 7.49987 6.05544 6.44987 6.80338 5.69986C7.10256 5.39986 7.40173 5.24986 7.70091 5.24986H8.44885C8.74802 5.24986 9.0472 5.24986 9.19679 5.84986C9.49596 6.59987 10.2439 8.39988 10.2439 8.54988C10.3935 8.69988 10.3935 8.99989 10.2439 9.14989C10.3935 9.44989 10.2439 9.74989 10.0943 9.89989C9.94473 10.0499 9.79514 10.3499 9.64555 10.4999C9.34637 10.6499 9.19679 10.9499 9.34637 11.2499C9.94472 12.1499 10.6927 13.0499 11.4406 13.7999C12.3381 14.5499 13.2356 15.1499 14.2827 15.5999C14.5819 15.7499 14.8811 15.7499 15.0307 15.4499C15.1803 15.1499 15.9282 14.3999 16.2274 14.0999C16.5266 13.7999 16.6762 13.7999 16.9753 13.9499L19.3687 15.1499C19.6679 15.2999 19.9671 15.4499 20.1167 15.5999C20.2663 16.0499 20.2663 16.6499 19.9671 17.0999Z" fill="white"/>
</g>
<defs>
<clipPath id="clip0_122_4461">
<rect width="24" height="24" fill="white" transform="translate(0.90332)"/>
</clipPath>
</defs>
</svg>
